<svg width="25" height="25" viewBox="0 0 25 25" fill="none" xmlns="http://www.w3.org/2000/svg">
<path d="M21.4483 4.16253C21.0578 3.772 20.4246 3.772 20.0341 4.16253L12.7397 11.4569L5.44539 4.16253C5.05487 3.772 4.4217 3.772 4.03118 4.16253C3.64065 4.55305 3.64065 5.18622 4.03118 5.57674L11.3255 12.8711L4.0312 20.1654C3.64067 20.556 3.64067 21.1891 4.0312 21.5797C4.42172 21.9702 5.05489 21.9702 5.44541 21.5797L12.7397 14.2853L20.0341 21.5797C20.4246 21.9702 21.0578 21.9702 21.4483 21.5797C21.8388 21.1891 21.8388 20.556 21.4483 20.1655L14.1539 12.8711L21.4483 5.57674C21.8388 5.18622 21.8388 4.55305 21.4483 4.16253Z" fill="#1459BA"/>
</svg>
