<svg width="906" height="48" viewBox="0 0 906 48" fill="none" xmlns="http://www.w3.org/2000/svg">
<g clip-path="url(#clip0_13_5)">
<path d="M490.228 23.8C505.288 20.4 510.227 15.1 519.022 15.1C528.54 15.1 530.227 23.8 530.227 23.8H490.228Z" fill="#1459BA"/>
<path d="M490.228 23.8C505.288 27.2 510.227 32.5 519.022 32.5C528.54 32.5 530.227 23.8 530.227 23.8H490.228Z" fill="#1459BA"/>
<path d="M415.772 23.8C400.712 20.4 395.773 15.1 386.978 15.1C377.46 15.1 375.773 23.8 375.773 23.8H415.772Z" fill="#1459BA"/>
<path d="M415.772 23.8C400.712 27.2 395.773 32.5 386.978 32.5C377.46 32.5 375.773 23.8 375.773 23.8H415.772Z" fill="#1459BA"/>
<path d="M865.037 23.8C880.097 20.4 885.037 15.1 893.832 15.1C903.35 15.1 905.036 23.8 905.036 23.8H865.037Z" fill="#1459BA"/>
<path d="M865.037 23.8C880.097 27.2 885.037 32.5 893.832 32.5C903.35 32.5 905.036 23.8 905.036 23.8H865.037Z" fill="#1459BA"/>
<path d="M423.603 23.8C439.868 23.8 453 12.9 453 -0.599998C453 12.9 466.132 23.8 482.397 23.8C466.132 23.8 453 34.7 453 48.2C453 34.7 439.868 23.8 423.603 23.8Z" fill="#1459BA"/>
<path d="M40.9628 23.8C25.9029 20.4 20.9633 15.1 12.1684 15.1C2.65054 15.1 0.963837 23.8 0.963837 23.8H40.9628Z" fill="#1459BA"/>
<path d="M40.9628 23.8C25.9029 27.2 20.9633 32.5 12.1684 32.5C2.65054 32.5 0.963837 23.8 0.963837 23.8H40.9628Z" fill="#1459BA"/>
<path d="M19.7585 23.8H375.773" stroke="#1459BA" stroke-width="3.1" stroke-linecap="round" stroke-linejoin="round"/>
<path d="M530.227 23.8H879.133" stroke="#1459BA" stroke-width="3.1" stroke-linecap="round" stroke-linejoin="round"/>
</g>
<defs>
<clipPath id="clip0_13_5">
<rect width="906" height="48" fill="white"/>
</clipPath>
</defs>
</svg>
