<svg width="20" height="21" viewBox="0 0 20 21" fill="none" xmlns="http://www.w3.org/2000/svg">
<path d="M10.4616 14.2551C10.3432 14.3846 10.1758 14.4583 10.0003 14.4583C9.82483 14.4583 9.6575 14.3846 9.53908 14.2551L6.20573 10.6092C5.97281 10.3545 5.99051 9.95917 6.24526 9.72625C6.50002 9.49333 6.89535 9.511 7.12826 9.76575L9.37533 12.2235V3C9.37533 2.65483 9.65516 2.375 10.0003 2.375C10.3455 2.375 10.6253 2.65483 10.6253 3V12.2235L12.8724 9.76575C13.1053 9.511 13.5007 9.49333 13.7554 9.72625C14.0102 9.95917 14.0278 10.3545 13.7949 10.6092L10.4616 14.2551Z" fill="white"/>
<path d="M3.125 13C3.125 12.6548 2.84518 12.375 2.5 12.375C2.15483 12.375 1.875 12.6548 1.875 13V13.0458C1.87498 14.1854 1.87497 15.104 1.9721 15.8265C2.07295 16.5766 2.28869 17.2081 2.79029 17.7097C3.29189 18.2113 3.92345 18.4271 4.67354 18.5279C5.39602 18.625 6.31462 18.625 7.45428 18.625H12.5458C13.6854 18.625 14.604 18.625 15.3265 18.5279C16.0766 18.4271 16.7081 18.2113 17.2097 17.7097C17.7113 17.2081 17.9271 16.5766 18.0279 15.8265C18.125 15.104 18.125 14.1854 18.125 13.0458V13C18.125 12.6548 17.8452 12.375 17.5 12.375C17.1548 12.375 16.875 12.6548 16.875 13C16.875 14.1962 16.8737 15.0304 16.7891 15.6599C16.7068 16.2714 16.5565 16.5952 16.3258 16.8258C16.0952 17.0565 15.7714 17.2068 15.1599 17.2891C14.5304 17.3737 13.6962 17.375 12.5 17.375H7.5C6.30383 17.375 5.46956 17.3737 4.8401 17.2891C4.22863 17.2068 3.90481 17.0565 3.67418 16.8258C3.44354 16.5952 3.29317 16.2714 3.21096 15.6599C3.12633 15.0304 3.125 14.1962 3.125 13Z" fill="white"/>
</svg>
