<svg width="500" height="500" viewBox="0 0 500 500" fill="none" xmlns="http://www.w3.org/2000/svg">
<path d="M439.481 212.566C421.289 192.448 390.811 190.196 367.11 177.008C326.32 154.312 310.506 102.618 273.398 74.299C249.965 56.417 218.306 49.485 189.993 53.405C149.804 58.969 111.988 85.905 100.636 125.367C97.4857 136.318 96.2247 148.193 97.1957 160.778C99.0117 184.328 104.078 208.181 99.2998 231.311C94.0328 256.804 77.4458 278.328 67.5358 302.399C55.1978 332.367 53.4987 366.004 58.7747 397.98C62.3747 419.799 69.5507 441.825 84.5337 458.089C85.6657 459.317 86.8447 460.491 88.0467 461.637H251.656C261.92 448.548 269.701 433.056 278.73 419.313C301.451 384.728 337.826 360.07 377.558 348.504C395.357 343.323 414.64 340.239 428.942 328.445C443.658 316.31 450.418 296.949 453.344 278.101C456.888 255.278 454.972 229.697 439.481 212.566Z" fill="#1459BA"/>
<path opacity="0.7" d="M439.481 212.566C421.289 192.448 390.811 190.196 367.11 177.008C326.32 154.312 310.506 102.618 273.398 74.299C249.965 56.417 218.306 49.485 189.993 53.405C149.804 58.969 111.988 85.905 100.636 125.367C97.4857 136.318 96.2247 148.193 97.1957 160.778C99.0117 184.328 104.078 208.181 99.2998 231.311C94.0328 256.804 77.4458 278.328 67.5358 302.399C55.1978 332.367 53.4987 366.004 58.7747 397.98C62.3747 419.799 69.5507 441.825 84.5337 458.089C85.6657 459.317 86.8447 460.491 88.0467 461.637H251.656C261.92 448.548 269.701 433.056 278.73 419.313C301.451 384.728 337.826 360.07 377.558 348.504C395.357 343.323 414.64 340.239 428.942 328.445C443.658 316.31 450.418 296.949 453.344 278.101C456.888 255.278 454.972 229.697 439.481 212.566Z" fill="white"/>
<path d="M63.8799 405.235L64.0799 408.875L64.1099 409.455L64.5699 417.985L64.6499 419.605L65.0599 427.115L65.1999 429.775L65.5499 436.235L65.7399 439.925L66.0399 445.355L66.2899 450.085L66.5299 454.485C66.5299 454.485 66.5819 455.452 66.6439 456.593" stroke="#263238" stroke-miterlimit="10" stroke-linecap="round" stroke-linejoin="round"/>
<path d="M66.7363 458.311C66.7933 459.375 66.8403 460.245 66.8403 460.245L66.8803 461.075H67.6703H69.5403H77.2803H79.1603H86.9003H88.7603H96.5003H98.3803H106.12H107.98H113.79L113.89 459.245L114.12 454.935L114.38 450.115L114.66 444.795L114.87 440.995L115.21 434.625L115.36 431.875C115.36 431.875 115.439 430.408 115.527 428.78" stroke="#263238" stroke-miterlimit="10" stroke-linecap="round" stroke-linejoin="round"/>
<path d="M115.635 426.786C115.705 425.5 115.76 424.475 115.76 424.475L115.85 422.755L116.3 414.315L116.34 413.635C116.34 413.635 116.46 411.394 116.576 409.227" stroke="#263238" stroke-miterlimit="10" stroke-linecap="round" stroke-linejoin="round"/>
<path d="M116.674 407.393C116.74 406.158 116.79 405.235 116.79 405.235" stroke="#263238" stroke-miterlimit="10" stroke-linecap="round" stroke-linejoin="round"/>
<path d="M67.6708 461.075L66.8408 460.245" stroke="#263238" stroke-miterlimit="10" stroke-linecap="round" stroke-linejoin="round"/>
<path d="M77.28 461.075L73.41 457.205L68.61 452.405L66.29 450.085" stroke="#263238" stroke-miterlimit="10" stroke-linecap="round" stroke-linejoin="round"/>
<path d="M86.9002 461.075L83.0302 457.205L78.2202 452.395L73.4202 447.595L68.6102 442.785L65.7402 439.925" stroke="#263238" stroke-miterlimit="10" stroke-linecap="round" stroke-linejoin="round"/>
<path d="M96.5006 461.075L92.6306 457.205L87.8306 452.405C87.8306 452.405 87.2826 451.857 86.5576 451.132" stroke="#263238" stroke-miterlimit="10" stroke-linecap="round" stroke-linejoin="round"/>
<path d="M85.1721 449.746C84.0601 448.634 83.0201 447.594 83.0201 447.594L78.2201 442.794L73.4101 437.984L68.6001 433.174C68.6001 433.174 68.0371 432.611 67.3701 431.944" stroke="#263238" stroke-miterlimit="10" stroke-linecap="round" stroke-linejoin="round"/>
<path d="M106.12 461.075L102.25 457.205L97.4404 452.395L92.6404 447.595L87.8304 442.785L83.0304 437.985L78.2204 433.175L73.4104 428.365L68.6104 423.565L64.6504 419.605" stroke="#263238" stroke-miterlimit="10" stroke-linecap="round" stroke-linejoin="round"/>
<path d="M113.89 459.245L111.85 457.205L107.05 452.405C107.05 452.405 106.443 451.798 105.661 451.016" stroke="#263238" stroke-miterlimit="10" stroke-linecap="round" stroke-linejoin="round"/>
<path d="M103.682 449.037C102.874 448.229 102.24 447.595 102.24 447.595L97.4402 442.795L92.6302 437.985L87.8302 433.175L83.0202 428.375L78.2202 423.565C78.2202 423.565 77.1332 422.481 75.9932 421.343" stroke="#263238" stroke-miterlimit="10" stroke-linecap="round" stroke-linejoin="round"/>
<path d="M73.4101 418.765L68.6001 413.955C68.6001 413.955 67.2551 412.607 66.0381 411.387" stroke="#263238" stroke-miterlimit="10" stroke-linecap="round" stroke-linejoin="round"/>
<path d="M69.5 405.235L73.41 409.145L78.22 413.955L83.02 418.755L87.83 423.565L92.64 428.375L97.44 433.175L102.25 437.985L107.05 442.785L111.86 447.595L114.38 450.115" stroke="#263238" stroke-miterlimit="10" stroke-linecap="round" stroke-linejoin="round"/>
<path d="M79.1104 405.235L83.0303 409.155L87.8304 413.955L92.6404 418.765L97.4404 423.565L102.25 428.375L107.06 433.185L111.86 437.985L114.87 440.995" stroke="#263238" stroke-miterlimit="10" stroke-linecap="round" stroke-linejoin="round"/>
<path d="M88.7207 405.235L92.6307 409.145L97.4407 413.955L102.251 418.765L107.051 423.565L111.861 428.375L115.361 431.875" stroke="#263238" stroke-miterlimit="10" stroke-linecap="round" stroke-linejoin="round"/>
<path d="M98.3301 405.235L102.25 409.155L107.05 413.955L111.86 418.765L115.85 422.755" stroke="#263238" stroke-miterlimit="10" stroke-linecap="round" stroke-linejoin="round"/>
<path d="M107.94 405.235L111.86 409.155L116.34 413.635" stroke="#263238" stroke-miterlimit="10" stroke-linecap="round" stroke-linejoin="round"/>
<path d="M114.12 454.935L111.85 457.205L107.98 461.075" stroke="#263238" stroke-miterlimit="10" stroke-linecap="round" stroke-linejoin="round"/>
<path d="M114.66 444.795L111.86 447.595L107.05 452.405L102.25 457.205L98.3799 461.075" stroke="#263238" stroke-miterlimit="10" stroke-linecap="round" stroke-linejoin="round"/>
<path d="M115.21 434.625L111.86 437.985L107.05 442.785L102.24 447.595L97.4398 452.395L92.6298 457.205L88.7598 461.075" stroke="#263238" stroke-miterlimit="10" stroke-linecap="round" stroke-linejoin="round"/>
<path d="M115.761 424.475L111.861 428.375L107.061 433.185L102.251 437.985C102.251 437.985 101.977 438.259 101.561 438.675" stroke="#263238" stroke-miterlimit="10" stroke-linecap="round" stroke-linejoin="round"/>
<path d="M99.1201 441.115C98.2021 442.033 97.4401 442.795 97.4401 442.795L92.6401 447.595L87.8301 452.405L83.0301 457.205C83.0301 457.205 82.0791 458.156 81.1201 459.115" stroke="#263238" stroke-miterlimit="10" stroke-linecap="round" stroke-linejoin="round"/>
<path d="M116.3 414.315L111.86 418.765L107.05 423.565L102.25 428.375L97.44 433.175L92.63 437.985L87.83 442.785L83.02 447.595L78.22 452.395L73.41 457.205L69.54 461.075" stroke="#263238" stroke-miterlimit="10" stroke-linecap="round" stroke-linejoin="round"/>
<path d="M66.5303 454.485L68.6103 452.405L73.4203 447.595L78.2203 442.795L83.0303 437.985C83.0303 437.985 83.6783 437.336 84.4973 436.515" stroke="#263238" stroke-miterlimit="10" stroke-linecap="round" stroke-linejoin="round"/>
<path d="M86.6055 434.402C87.3065 433.699 87.8305 433.175 87.8305 433.175L92.6405 428.375L97.4405 423.565L102.25 418.765L107.05 413.955L111.86 409.155C111.86 409.155 112.809 408.206 113.773 407.242" stroke="#263238" stroke-miterlimit="10" stroke-linecap="round" stroke-linejoin="round"/>
<path d="M66.04 445.355L68.61 442.785L73.41 437.985L78.22 433.175L83.02 428.375L87.83 423.565L92.64 418.765L97.44 413.955L102.25 409.155L106.16 405.235" stroke="#263238" stroke-miterlimit="10" stroke-linecap="round" stroke-linejoin="round"/>
<path d="M65.5498 436.235L68.5998 433.175L73.4098 428.365C73.4098 428.365 74.2398 427.537 75.2098 426.569" stroke="#263238" stroke-miterlimit="10" stroke-linecap="round" stroke-linejoin="round"/>
<path d="M76.5312 425.251C77.4532 424.331 78.2203 423.565 78.2203 423.565L83.0202 418.755L87.8303 413.955L92.6302 409.145C92.6302 409.145 93.3273 408.45 94.1333 407.646" stroke="#263238" stroke-miterlimit="10" stroke-linecap="round" stroke-linejoin="round"/>
<path d="M65.0605 427.115L68.6105 423.565L73.4106 418.765L78.2206 413.955L83.0305 409.155C83.0305 409.155 84.2895 407.893 85.3785 406.801" stroke="#263238" stroke-miterlimit="10" stroke-linecap="round" stroke-linejoin="round"/>
<path d="M64.5703 417.985L68.6003 413.955L73.4103 409.145L77.3303 405.235" stroke="#263238" stroke-miterlimit="10" stroke-linecap="round" stroke-linejoin="round"/>
<path d="M67.7201 405.235L64.0801 408.875" stroke="#263238" stroke-miterlimit="10" stroke-linecap="round" stroke-linejoin="round"/>
<path d="M78.7246 399.106C90.3286 399.106 105.05 399.106 113.011 399.106" stroke="#263238" stroke-miterlimit="10" stroke-linecap="round" stroke-linejoin="round"/>
<path d="M114.99 399.106C117.352 399.106 118.752 399.106 118.752 399.106V405.235C118.752 405.235 113.165 405.235 105.494 405.235" stroke="#263238" stroke-miterlimit="10" stroke-linecap="round" stroke-linejoin="round"/>
<path d="M102.198 405.235C93.5502 405.235 83.1152 405.235 75.0332 405.235" stroke="#263238" stroke-miterlimit="10" stroke-linecap="round" stroke-linejoin="round"/>
<path d="M73.846 405.235C66.866 405.235 61.915 405.235 61.915 405.235C61.915 405.235 61.915 404.009 61.915 402.654" stroke="#263238" stroke-miterlimit="10" stroke-linecap="round" stroke-linejoin="round"/>
<path d="M61.915 402.127C61.915 400.609 61.915 399.106 61.915 399.106C61.915 399.106 67.627 399.106 75.429 399.106" stroke="#263238" stroke-miterlimit="10" stroke-linecap="round" stroke-linejoin="round"/>
<path d="M98.4248 351.607V393.665" stroke="#263238" stroke-miterlimit="10" stroke-linecap="round" stroke-linejoin="round"/>
<path d="M98.4248 337.926V346.886" stroke="#263238" stroke-miterlimit="10" stroke-linecap="round" stroke-linejoin="round"/>
<path d="M289.345 460.91V315.757H98.4248V332.859" stroke="#263238" stroke-miterlimit="10" stroke-linecap="round" stroke-linejoin="round"/>
<path d="M263.706 324.275H278.976V453.768" stroke="#263238" stroke-miterlimit="10" stroke-linecap="round" stroke-linejoin="round"/>
<path d="M108.794 393.665V324.275H254.838" stroke="#263238" stroke-miterlimit="10" stroke-linecap="round" stroke-linejoin="round"/>
<path d="M116.109 307.69H120.961" stroke="#263238" stroke-miterlimit="10" stroke-linecap="round" stroke-linejoin="round"/>
<path d="M127.924 307.69H293.72V315.7H94.0498V307.69H113.017" stroke="#263238" stroke-miterlimit="10" stroke-linecap="round" stroke-linejoin="round"/>
<path d="M333.238 303.731L330.854 319.195" stroke="#263238" stroke-miterlimit="10" stroke-linecap="round" stroke-linejoin="round"/>
<path d="M318.626 240.285H330.156C336.917 240.285 342.087 246.313 341.057 252.995L334.541 295.269" stroke="#263238" stroke-miterlimit="10" stroke-linecap="round" stroke-linejoin="round"/>
<path d="M306.904 240.285H315.327" stroke="#263238" stroke-miterlimit="10" stroke-linecap="round" stroke-linejoin="round"/>
<path d="M258.379 298.239L265.871 249.635C266.7 244.256 271.329 240.285 276.772 240.285H300.896" stroke="#263238" stroke-miterlimit="10" stroke-linecap="round" stroke-linejoin="round"/>
<path d="M250.021 352.469L253.773 328.124" stroke="#263238" stroke-miterlimit="10" stroke-linecap="round" stroke-linejoin="round"/>
<path d="M292.668 383.533H304.141C309.832 383.533 314.997 381.283 318.796 377.624" stroke="#263238" stroke-miterlimit="10" stroke-linecap="round" stroke-linejoin="round"/>
<path d="M229.449 383.533H269.423" stroke="#263238" stroke-miterlimit="10" stroke-linecap="round" stroke-linejoin="round"/>
<path d="M212.929 379.924C216.301 382.202 220.366 383.532 224.742 383.532" stroke="#263238" stroke-miterlimit="10" stroke-linecap="round" stroke-linejoin="round"/>
<path d="M275.623 352.469H211.489C207.139 352.469 203.613 355.995 203.613 360.345V362.404C203.613 367.358 205.318 371.914 208.173 375.516" stroke="#263238" stroke-miterlimit="10" stroke-linecap="round" stroke-linejoin="round"/>
<path d="M324.691 357.38C323.52 354.5 320.693 352.469 317.392 352.469H305.962" stroke="#263238" stroke-miterlimit="10" stroke-linecap="round" stroke-linejoin="round"/>
<path d="M275.763 389.34H248.317L242.553 383.533" stroke="#263238" stroke-miterlimit="10" stroke-linecap="round" stroke-linejoin="round"/>
<path d="M270.86 410.392H258.021C257.018 410.392 256.205 409.579 256.205 408.576V389.34H272.675V408.576C272.676 409.579 271.863 410.392 270.86 410.392Z" stroke="#263238" stroke-miterlimit="10" stroke-linecap="round" stroke-linejoin="round"/>
<path d="M269.593 410.392H259.289V434.114H269.593V410.392Z" stroke="#263238" stroke-miterlimit="10" stroke-linecap="round" stroke-linejoin="round"/>
<path d="M217.225 448.716C234.389 437.287 259.29 434.113 259.29 434.113" stroke="#263238" stroke-miterlimit="10" stroke-linecap="round" stroke-linejoin="round"/>
<path d="M275.723 445.305C258.353 442.759 241.062 446.601 224.763 450.809" stroke="#263238" stroke-miterlimit="10" stroke-linecap="round" stroke-linejoin="round"/>
<path d="M304.12 450.809C300.158 449.793 296.163 448.9 292.157 448.077" stroke="#263238" stroke-miterlimit="10" stroke-linecap="round" stroke-linejoin="round"/>
<path d="M292.668 439.694C299.301 441.966 305.805 444.824 311.658 448.717" stroke="#263238" stroke-miterlimit="10" stroke-linecap="round" stroke-linejoin="round"/>
<path d="M269.592 434.114C271.761 434.407 273.917 434.8 276.062 435.233" stroke="#263238" stroke-miterlimit="10" stroke-linecap="round" stroke-linejoin="round"/>
<path d="M219.241 461.638C222.81 461.638 225.702 458.745 225.702 455.177C225.702 451.609 222.81 448.716 219.241 448.716C215.673 448.716 212.78 451.609 212.78 455.177C212.78 458.745 215.673 461.638 219.241 461.638Z" stroke="#263238" stroke-miterlimit="10" stroke-linecap="round" stroke-linejoin="round"/>
<path d="M316.962 455.177C316.962 458.745 314.07 461.638 310.501 461.638C306.933 461.638 304.04 458.746 304.04 455.177C304.04 451.609 306.933 448.716 310.501 448.716C314.07 448.716 316.962 451.609 316.962 455.177Z" stroke="#263238" stroke-miterlimit="10" stroke-linecap="round" stroke-linejoin="round"/>
<path d="M302.669 370.353L307.738 336.026C308.224 332.736 310.823 330.163 314.118 329.71L337.68 326.472C339.49 326.223 340.838 324.677 340.838 322.85C340.838 320.831 339.201 319.194 337.182 319.194H334.211L310.869 322.789C305.153 323.669 300.705 328.218 299.952 333.952L295.067 371.19C294.886 372.567 295.958 373.789 297.347 373.789" stroke="#263238" stroke-miterlimit="10" stroke-linecap="round" stroke-linejoin="round"/>
<path d="M337.68 326.473L331.552 359.078C333.244 359.078 334.616 360.45 334.616 362.142V368.369C334.616 372.663 331.135 376.143 326.842 376.143H298.189" stroke="#263238" stroke-miterlimit="10" stroke-linecap="round" stroke-linejoin="round"/>
<path d="M333.619 327.03L327.245 358.383H310.502" stroke="#263238" stroke-miterlimit="10" stroke-linecap="round" stroke-linejoin="round"/>
<path d="M211.574 333.953L209.858 347.037" stroke="#263238" stroke-miterlimit="10" stroke-linecap="round" stroke-linejoin="round"/>
<path d="M217.54 348.344L219.359 336.026C219.845 332.736 222.444 330.163 225.739 329.71L249.301 326.472" stroke="#263238" stroke-miterlimit="10" stroke-linecap="round" stroke-linejoin="round"/>
<path d="M164.587 258.694L173.769 301.51C174.163 303.349 175.789 304.663 177.669 304.663H245.922C247.655 304.663 248.941 303.057 248.561 301.366L238.955 258.538C238.547 256.716 236.929 255.422 235.063 255.422H167.231C165.509 255.422 164.225 257.01 164.587 258.694Z" stroke="#263238" stroke-miterlimit="10" stroke-linecap="round" stroke-linejoin="round"/>
<path d="M203.961 275.16H198.678L197.184 279.888L200.972 284.617H206.254L207.748 279.888L203.961 275.16Z" stroke="#263238" stroke-miterlimit="10" stroke-linecap="round" stroke-linejoin="round"/>
<path d="M251.896 301.75H278.977V303.219C278.977 304.684 277.788 305.872 276.323 305.872H275.623" stroke="#263238" stroke-miterlimit="10" stroke-linecap="round" stroke-linejoin="round"/>
<path d="M399.712 407.632C399.712 407.632 414.765 408.82 415.393 419.926C415.393 419.926 400.15 426.944 399.712 407.632Z" stroke="#263238" stroke-miterlimit="10" stroke-linecap="round" stroke-linejoin="round"/>
<path d="M429.49 410.389C429.49 410.389 437.9 399.02 451.487 404.85C451.487 404.85 443.189 418.596 429.49 410.389Z" stroke="#263238" stroke-miterlimit="10" stroke-linecap="round" stroke-linejoin="round"/>
<path d="M450.336 374.493C450.336 374.493 452.754 396.367 432.844 390.343C432.844 390.343 439.166 374.263 450.336 374.493Z" stroke="#263238" stroke-miterlimit="10" stroke-linecap="round" stroke-linejoin="round"/>
<path d="M425.89 362.317C425.89 362.317 441.636 370.808 430.058 383.693C430.058 383.693 419.015 374.49 425.89 362.317Z" stroke="#263238" stroke-miterlimit="10" stroke-linecap="round" stroke-linejoin="round"/>
<path d="M406.515 381.862C406.515 381.862 423.635 380.135 423.635 395.983C423.635 395.983 406.515 396.658 406.515 381.862Z" stroke="#263238" stroke-miterlimit="10" stroke-linecap="round" stroke-linejoin="round"/>
<path d="M419.346 428.873C419.097 423.557 419.099 416.716 422.346 409.485C429.838 392.802 432.372 378.754 428.457 368.851" stroke="#263238" stroke-miterlimit="10" stroke-linecap="round" stroke-linejoin="round"/>
<path d="M412.14 386.123C412.14 386.123 422.402 390.2 425.89 400.771" stroke="#263238" stroke-miterlimit="10" stroke-linecap="round" stroke-linejoin="round"/>
<path d="M444.923 383.244C444.923 383.244 438.993 391.322 428.946 390.45" stroke="#263238" stroke-miterlimit="10" stroke-linecap="round" stroke-linejoin="round"/>
<path d="M444.923 407.174C444.923 407.174 428.499 411.906 421.971 410.357" stroke="#263238" stroke-miterlimit="10" stroke-linecap="round" stroke-linejoin="round"/>
<path d="M404.621 412.633C404.621 412.633 411.962 420.691 419.346 420.565" stroke="#263238" stroke-miterlimit="10" stroke-linecap="round" stroke-linejoin="round"/>
<path d="M438.872 428.873H403.182C402.702 428.873 402.312 429.262 402.312 429.742V432.448C402.312 432.928 402.702 433.317 403.182 433.317H404.224L407.404 461.073H434.65L437.831 433.317H438.872C439.352 433.317 439.742 432.928 439.742 432.448V429.742C439.742 429.262 439.352 428.873 438.872 428.873Z" stroke="#263238" stroke-miterlimit="10" stroke-linecap="round" stroke-linejoin="round"/>
<path d="M406.515 433.317H427.274" stroke="#263238" stroke-miterlimit="10" stroke-linecap="round" stroke-linejoin="round"/>
<path d="M431.188 433.317H434.307" stroke="#263238" stroke-miterlimit="10" stroke-linecap="round" stroke-linejoin="round"/>
<path d="M230.19 87.26V365.18C230.19 366.511 229.111 367.59 227.78 367.59H63.1502C61.8192 367.59 60.7402 366.511 60.7402 365.18V87.26C60.7402 85.929 61.8192 84.85 63.1502 84.85H115.199C116.608 84.85 117.75 85.992 117.75 87.401V93.238C117.75 94.647 118.892 95.789 120.301 95.789H170.638C172.047 95.789 173.189 94.647 173.189 93.238V87.401C173.189 85.992 174.331 84.85 175.74 84.85H227.779C229.111 84.85 230.19 85.929 230.19 87.26Z" fill="white" stroke="#263238" stroke-miterlimit="10" stroke-linecap="round" stroke-linejoin="round"/>
<path d="M230.192 112.27H60.7402V137.798H230.192V112.27Z" fill="#BFBFBF" stroke="#263238" stroke-miterlimit="10" stroke-linecap="round" stroke-linejoin="round"/>
<path d="M82.8975 188.952H151.872" stroke="#263238" stroke-width="3" stroke-miterlimit="10" stroke-linecap="round" stroke-linejoin="round"/>
<path d="M99.9268 200.924H208.035" stroke="#263238" stroke-width="3" stroke-miterlimit="10" stroke-linecap="round" stroke-linejoin="round"/>
<path d="M82.8975 209.861H208.034" stroke="#263238" stroke-width="3" stroke-miterlimit="10" stroke-linecap="round" stroke-linejoin="round"/>
<path d="M82.8975 218.798H208.034" stroke="#263238" stroke-width="3" stroke-miterlimit="10" stroke-linecap="round" stroke-linejoin="round"/>
<path d="M82.8975 227.734H208.034" stroke="#263238" stroke-width="3" stroke-miterlimit="10" stroke-linecap="round" stroke-linejoin="round"/>
<path d="M82.8975 236.671H208.034" stroke="#263238" stroke-width="3" stroke-miterlimit="10" stroke-linecap="round" stroke-linejoin="round"/>
<path d="M82.8975 245.608H208.034" stroke="#263238" stroke-width="3" stroke-miterlimit="10" stroke-linecap="round" stroke-linejoin="round"/>
<path d="M82.8975 254.545H140.997" stroke="#263238" stroke-width="3" stroke-miterlimit="10" stroke-linecap="round" stroke-linejoin="round"/>
<path d="M211.118 121.894H217.508" stroke="#263238" stroke-miterlimit="10" stroke-linecap="round" stroke-linejoin="round"/>
<path d="M211.118 124.835H217.508" stroke="#263238" stroke-miterlimit="10" stroke-linecap="round" stroke-linejoin="round"/>
<path d="M211.118 127.777H217.508" stroke="#263238" stroke-miterlimit="10" stroke-linecap="round" stroke-linejoin="round"/>
<path d="M78.4975 124.835H73.1055" stroke="#263238" stroke-miterlimit="10" stroke-linecap="round" stroke-linejoin="round"/>
<path d="M75.5825 128.105L72.3125 124.835L75.5825 121.565" stroke="#263238" stroke-miterlimit="10" stroke-linecap="round" stroke-linejoin="round"/>
<path d="M201.698 121.894H193.648V127.777H201.698V121.894Z" stroke="#263238" stroke-miterlimit="10" stroke-linecap="round" stroke-linejoin="round"/>
<path d="M193.648 121.894L197.673 124.835L201.698 121.894" stroke="#263238" stroke-miterlimit="10" stroke-linecap="round" stroke-linejoin="round"/>
<path d="M183.252 128.913H177.834L177.112 121.893H183.975L183.252 128.913Z" stroke="#263238" stroke-miterlimit="10" stroke-linecap="round" stroke-linejoin="round"/>
<path d="M179.189 121.893V120.758H181.898V121.893" stroke="#263238" stroke-miterlimit="10" stroke-linecap="round" stroke-linejoin="round"/>
<path d="M230.191 347.305V365.181C230.191 366.507 229.118 367.587 227.785 367.587H63.1532C61.8202 367.587 60.7402 366.507 60.7402 365.181V347.305H230.191Z" fill="#1459BA" stroke="#263238" stroke-miterlimit="10" stroke-linecap="round" stroke-linejoin="round"/>
<path d="M103.745 159.311H172.72" stroke="#263238" stroke-width="3" stroke-miterlimit="10" stroke-linecap="round" stroke-linejoin="round"/>
<path d="M91.0552 167.717C95.6973 166.963 98.8497 162.589 98.0963 157.947C97.3429 153.305 92.9691 150.153 88.327 150.906C83.685 151.66 80.5326 156.034 81.286 160.676C82.0394 165.318 86.4132 168.47 91.0552 167.717Z" fill="#1459BA" stroke="#263238" stroke-miterlimit="10" stroke-linecap="round" stroke-linejoin="round"/>
<path d="M93.1709 164.627C92.6549 164.627 91.1499 163.492 91.6659 162.563C92.1819 161.634 93.1709 160.086 93.1709 160.086C93.7899 159.26 93.8929 157.299 93.8929 157.299C94.0989 155.854 93.2739 153.377 89.6859 153.377C86.0979 153.377 85.2729 155.854 85.4789 157.299C85.4789 157.299 85.5819 159.26 86.2009 160.086C86.2009 160.086 87.1899 161.634 87.7059 162.563C88.2219 163.492 86.7169 164.627 86.2009 164.627C85.6849 164.627 83.7559 165.418 83.7559 165.418C83.7559 165.418 87.1829 167.827 89.6849 167.827C92.1869 167.827 95.6139 165.418 95.6139 165.418C95.6139 165.418 93.6869 164.627 93.1709 164.627Z" fill="#263238"/>
<path d="M60.7402 272.195H230.191" stroke="#263238" stroke-miterlimit="10" stroke-linecap="round" stroke-linejoin="round"/>
<path d="M230.192 318.71H60.7402V347.305H230.192V318.71Z" fill="#BFBFBF" stroke="#263238" stroke-miterlimit="10" stroke-linecap="round" stroke-linejoin="round"/>
<path d="M207 306.757H193.049C190.318 306.757 188.104 304.543 188.104 301.812V287.861C188.104 285.13 190.318 282.916 193.049 282.916H207C209.731 282.916 211.945 285.13 211.945 287.861V301.812C211.945 304.543 209.731 306.757 207 306.757Z" fill="#1459BA" stroke="#263238" stroke-miterlimit="10" stroke-linecap="round" stroke-linejoin="round"/>
<path d="M196.344 293.005L199.695 289.654C201.146 288.203 203.498 288.203 204.95 289.654C206.401 291.105 206.401 293.457 204.95 294.908L199.477 300.381C198.51 301.348 196.941 301.348 195.974 300.381C195.007 299.414 195.007 297.845 195.974 296.878L201.174 291.678C201.627 291.225 202.363 291.225 202.816 291.678C203.27 292.131 203.27 292.867 202.816 293.32L200.025 296.111" stroke="#263238" stroke-width="1.5" stroke-miterlimit="10" stroke-linecap="round" stroke-linejoin="round"/>
<path d="M82.8975 290.369H176.728" stroke="#263238" stroke-width="3" stroke-miterlimit="10" stroke-linecap="round" stroke-linejoin="round"/>
<path d="M82.8975 299.305H161.075" stroke="#263238" stroke-width="3" stroke-miterlimit="10" stroke-linecap="round" stroke-linejoin="round"/>
<path d="M103.543 340.085H85.4802C83.6462 340.085 82.1592 338.598 82.1592 336.764V329.104C82.1592 327.27 83.6462 325.783 85.4802 325.783H103.542C105.376 325.783 106.863 327.27 106.863 329.104V336.764C106.864 338.598 105.377 340.085 103.543 340.085Z" stroke="#263238" stroke-miterlimit="10" stroke-linecap="round" stroke-linejoin="round"/>
<path d="M98.2246 335.841V334.818C98.2246 333.421 97.0926 332.289 95.6956 332.289H91.5156" stroke="#263238" stroke-miterlimit="10" stroke-linecap="round" stroke-linejoin="round"/>
<path d="M93.0609 334.551L90.7979 332.289L93.0609 330.026" stroke="#263238" stroke-miterlimit="10" stroke-linecap="round" stroke-linejoin="round"/>
<path d="M155.113 340.085H137.05C135.216 340.085 133.729 338.598 133.729 336.764V329.104C133.729 327.27 135.216 325.783 137.05 325.783H155.113C156.947 325.783 158.434 327.27 158.434 329.104V336.764C158.434 338.598 156.947 340.085 155.113 340.085Z" stroke="#263238" stroke-miterlimit="10" stroke-linecap="round" stroke-linejoin="round"/>
<path d="M150.969 335.841V334.818C150.969 333.421 149.837 332.289 148.44 332.289H144.26" stroke="#263238" stroke-miterlimit="10" stroke-linecap="round" stroke-linejoin="round"/>
<path d="M145.803 334.551L143.541 332.289L145.803 330.026" stroke="#263238" stroke-miterlimit="10" stroke-linecap="round" stroke-linejoin="round"/>
<path d="M143.455 334.551L141.193 332.289L143.455 330.026" stroke="#263238" stroke-miterlimit="10" stroke-linecap="round" stroke-linejoin="round"/>
<path d="M189.793 340.085H207.855C209.689 340.085 211.176 338.598 211.176 336.764V329.104C211.176 327.27 209.689 325.783 207.855 325.783H189.793C187.959 325.783 186.472 327.27 186.472 329.104V336.764C186.472 338.598 187.959 340.085 189.793 340.085Z" stroke="#263238" stroke-miterlimit="10" stroke-linecap="round" stroke-linejoin="round"/>
<path d="M195.11 335.841V334.818C195.11 333.421 196.242 332.289 197.639 332.289H201.819" stroke="#263238" stroke-miterlimit="10" stroke-linecap="round" stroke-linejoin="round"/>
<path d="M200.275 334.551L202.537 332.289L200.275 330.026" stroke="#263238" stroke-miterlimit="10" stroke-linecap="round" stroke-linejoin="round"/>
<path d="M230.19 87.25V112.27H60.7402V87.26C60.7402 85.929 61.8192 84.85 63.1502 84.85H115.199C116.608 84.85 117.75 85.992 117.75 87.401V93.238C117.75 94.647 118.892 95.789 120.301 95.789H170.638C172.047 95.789 173.189 94.647 173.189 93.238V87.401C173.189 85.992 174.331 84.85 175.74 84.85H227.789C229.115 84.85 230.19 85.924 230.19 87.25Z" fill="#1459BA" stroke="#263238" stroke-miterlimit="10" stroke-linecap="round" stroke-linejoin="round"/>
<path d="M280.728 196.925V199.425" stroke="#263238" stroke-linecap="round" stroke-linejoin="round"/>
<path d="M280.728 204.285V289.339" stroke="#263238" stroke-linecap="round" stroke-linejoin="round" stroke-dasharray="4.86 4.86"/>
<path d="M280.728 291.769V294.269H278.228" stroke="#263238" stroke-linecap="round" stroke-linejoin="round"/>
<path d="M273.518 294.269H219.363" stroke="#263238" stroke-linecap="round" stroke-linejoin="round" stroke-dasharray="4.71 4.71"/>
<path d="M217.008 294.269H214.508" stroke="#263238" stroke-linecap="round" stroke-linejoin="round"/>
<path d="M399.385 441.835C399.385 441.835 399.649 449.506 397.011 452.143C394.374 454.78 395.429 461.637 395.429 461.637H419.297L419.956 454.442L416 440.074L399.385 441.835Z" fill="#757575" stroke="#263238" stroke-miterlimit="10" stroke-linecap="round" stroke-linejoin="round"/>
<path d="M340.835 440.074C340.835 440.074 343.472 447.014 333.714 450.37C323.956 453.725 318.153 453.725 317.362 459.264V461.638H338.211L344.79 459.528L346.9 461.638H358.504L359.823 457.418L357.977 443.596L340.835 440.074Z" fill="#757575" stroke="#263238" stroke-miterlimit="10" stroke-linecap="round" stroke-linejoin="round"/>
<path d="M342.549 250.765L337.611 278.077C337.611 278.077 334.753 318.835 335.09 335.841C335.428 352.846 341.362 429.77 340.966 432.847C340.57 435.924 337.42 439.276 337.611 439.776C337.801 440.275 338.806 444.202 338.806 444.202L358.42 446.982L361.142 441.835C361.142 441.835 357.676 437.423 358.42 436.08C359.164 434.737 360.747 429.7 361.142 427.866C361.538 426.033 365.375 321.705 365.375 321.705C365.375 321.705 392.395 424.952 392.395 428.855C392.395 432.758 396.747 437.151 396.747 437.151L395.22 445.022L398.725 448.841C398.725 448.841 408.879 444.231 418.901 448.841L418.374 441.045L415.341 437.151L416.132 431.696C416.132 431.696 412.059 389.395 407.568 369.34C403.077 349.285 400.194 282.351 398.956 277.522C397.719 272.693 393.626 248.148 393.626 248.148L342.549 250.765Z" fill="#263238"/>
<path d="M313.259 194.102H248.195C244.909 194.102 242.246 191.438 242.246 188.153V112.519C242.246 109.233 244.91 106.57 248.195 106.57H313.259C316.545 106.57 319.208 109.234 319.208 112.519V188.153C319.209 191.438 316.545 194.102 313.259 194.102Z" fill="#1459BA" stroke="#263238" stroke-miterlimit="10" stroke-linecap="round" stroke-linejoin="round"/>
<path d="M297.451 125.777H259.077V180.71H297.451V125.777Z" fill="white"/>
<mask id="mask0_63_6" style="mask-type:luminance" maskUnits="userSpaceOnUse" x="259" y="125" width="39" height="56">
<path d="M297.451 125.777H259.077V180.71H297.451V125.777Z" fill="white"/>
</mask>
<g mask="url(#mask0_63_6)">
<path opacity="0.4" d="M297.451 125.777H259.077V180.71H297.451V125.777Z" fill="#1459BA"/>
</g>
<path d="M297.451 125.777H259.077V180.71H297.451V125.777Z" stroke="#263238" stroke-miterlimit="10" stroke-linecap="round" stroke-linejoin="round"/>
<path d="M296.187 118.008L258.558 125.522L269.314 179.389L306.943 171.875L296.187 118.008Z" fill="white" stroke="#263238" stroke-miterlimit="10" stroke-linecap="round" stroke-linejoin="round"/>
<path d="M261.382 124.699C261.938 123.348 263.268 122.398 264.819 122.398C266.871 122.398 268.534 124.061 268.534 126.113V133.854C268.534 135.222 267.425 136.331 266.057 136.331C264.689 136.331 263.58 135.222 263.58 133.854V126.501C263.58 125.86 264.1 125.34 264.741 125.34C265.382 125.34 265.902 125.86 265.902 126.501V130.449" stroke="#263238" stroke-width="1.5" stroke-miterlimit="10" stroke-linecap="round" stroke-linejoin="round"/>
<path d="M320.76 208.45C320.78 213.83 312.75 215.42 312.75 215.42C298.11 201.99 294.81 185.49 287.69 182.87C287.04 182.63 286.45 182.25 285.94 181.8C283.8 179.9 282.76 176.71 282.76 176.71L292.23 174.82C292.68 172.32 293.81 169.19 294.78 167.83C295.47 166.86 294.47 164.59 293.3 162.05C292.53 160.4 293.79 158.9 293.79 158.9C293.79 158.9 297.45 161.77 298.9 165.65C300.35 169.52 298.89 178.62 303.17 183.13C310.82 191.19 311.97 190.73 319.21 196.93C319.21 196.93 320.74 203.24 320.76 208.45Z" fill="white"/>
<mask id="mask1_63_6" style="mask-type:luminance" maskUnits="userSpaceOnUse" x="282" y="158" width="39" height="58">
<path d="M320.76 208.45C320.78 213.83 312.75 215.42 312.75 215.42C298.11 201.99 294.81 185.49 287.69 182.87C287.04 182.63 286.45 182.25 285.94 181.8C283.8 179.9 282.76 176.71 282.76 176.71L292.23 174.82C292.68 172.32 293.81 169.19 294.78 167.83C295.47 166.86 294.47 164.59 293.3 162.05C292.53 160.4 293.79 158.9 293.79 158.9C293.79 158.9 297.45 161.77 298.9 165.65C300.35 169.52 298.89 178.62 303.17 183.13C310.82 191.19 311.97 190.73 319.21 196.93C319.21 196.93 320.74 203.24 320.76 208.45Z" fill="white"/>
</mask>
<g mask="url(#mask1_63_6)">
<path opacity="0.4" d="M285.94 181.8C283.8 179.9 282.76 176.71 282.76 176.71L292.23 174.82C292.23 174.82 291.75 177.5 292.23 179.33C292.53 180.5 288.82 180.51 285.94 181.8Z" fill="#1459BA"/>
</g>
<path d="M320.76 208.45C320.78 213.83 312.75 215.42 312.75 215.42C298.11 201.99 294.81 185.49 287.69 182.87C287.04 182.63 286.45 182.25 285.94 181.8C283.8 179.9 282.76 176.71 282.76 176.71L292.23 174.82C292.68 172.32 293.81 169.19 294.78 167.83C295.47 166.86 294.47 164.59 293.3 162.05C292.53 160.4 293.79 158.9 293.79 158.9C293.79 158.9 297.45 161.77 298.9 165.65C300.35 169.52 298.89 178.62 303.17 183.13C310.82 191.19 311.97 190.73 319.21 196.93C319.21 196.93 320.74 203.24 320.76 208.45Z" stroke="#263238" stroke-miterlimit="10" stroke-linecap="round" stroke-linejoin="round"/>
<path d="M347.16 167.83V202.91C347.16 202.91 342.6 207.41 337.65 212.15C332.36 217.22 326.63 222.56 325.54 222.99C323.43 223.81 319.21 220.58 319.21 220.58C316.84 222.16 314.46 218.8 314.46 218.8C312.09 221.23 309.71 217.15 312.62 212.93C315.52 208.71 319.21 196.93 319.21 196.93C320.79 195.69 321.85 196.93 321.85 196.93C321.85 196.93 340.04 171.26 347.16 167.83Z" fill="#1459BA"/>
<mask id="mask2_63_6" style="mask-type:luminance" maskUnits="userSpaceOnUse" x="311" y="167" width="37" height="57">
<path d="M347.16 167.83V202.91C347.16 202.91 342.6 207.41 337.65 212.15C332.36 217.22 326.63 222.56 325.54 222.99C323.43 223.81 319.21 220.58 319.21 220.58C316.84 222.16 314.46 218.8 314.46 218.8C312.09 221.23 309.71 217.15 312.62 212.93C315.52 208.71 319.21 196.93 319.21 196.93C320.79 195.69 321.85 196.93 321.85 196.93C321.85 196.93 340.04 171.26 347.16 167.83Z" fill="white"/>
</mask>
<g mask="url(#mask2_63_6)">
<path opacity="0.2" d="M347.16 182.84V202.91C347.16 202.91 342.6 207.41 337.65 212.15C335.39 209.74 333.75 206.39 333.45 204.27C332.86 200.09 337.8 203.11 337.8 203.11C334.24 199.53 338.4 183.13 338.61 185.9C338.79 188.15 339.37 193.04 339.58 194.81C339.13 188.51 345.45 183.55 347.16 182.84Z" fill="black" fill-opacity="0.7"/>
</g>
<path d="M347.16 167.83V202.91C347.16 202.91 342.6 207.41 337.65 212.15C332.36 217.22 326.63 222.56 325.54 222.99C323.43 223.81 319.21 220.58 319.21 220.58C316.84 222.16 314.46 218.8 314.46 218.8C312.09 221.23 309.71 217.15 312.62 212.93C315.52 208.71 319.21 196.93 319.21 196.93C320.79 195.69 321.85 196.93 321.85 196.93C321.85 196.93 340.04 171.26 347.16 167.83Z" stroke="#263238" stroke-miterlimit="10" stroke-linecap="round" stroke-linejoin="round"/>
<path d="M395.69 250.67C397.64 253.84 343.95 255.2 340.25 252.67C339.76 252.34 339.4 251.95 339.15 251.54C337.47 248.81 340.25 244.75 340.25 244.75C340.25 244.75 339.78 188.92 347.16 167.83C347.16 167.83 356.21 166.7 368.61 166.88C373.4 166.95 378.7 167.22 384.18 167.83C388.14 168.27 393.04 169.09 397.87 169.99C405.94 171.51 413.83 173.29 416.96 174C417.86 174.21 418.37 174.33 418.37 174.33C418.37 174.33 393.74 247.51 395.69 250.67Z" fill="#1459BA"/>
<mask id="mask3_63_6" style="mask-type:luminance" maskUnits="userSpaceOnUse" x="338" y="166" width="81" height="88">
<path d="M395.69 250.67C397.64 253.84 343.95 255.2 340.25 252.67C339.76 252.34 339.4 251.95 339.15 251.54C337.47 248.81 340.25 244.75 340.25 244.75C340.25 244.75 339.78 188.92 347.16 167.83C347.16 167.83 356.21 166.7 368.61 166.88C373.4 166.95 378.7 167.22 384.18 167.83C388.14 168.27 393.04 169.09 397.87 169.99C405.94 171.51 413.83 173.29 416.96 174C417.86 174.21 418.37 174.33 418.37 174.33C418.37 174.33 393.74 247.51 395.69 250.67Z" fill="white"/>
</mask>
<g mask="url(#mask3_63_6)">
<path opacity="0.2" d="M364.88 179.33C364.88 179.33 361.29 173.26 367.27 167.83C367.6 167.53 368.05 167.21 368.61 166.88C373.4 166.95 378.7 167.22 384.18 167.83C388.14 168.27 393.04 169.09 397.87 169.99L376.38 181.35L371.92 176.8L364.88 179.33Z" fill="black" fill-opacity="0.7"/>
</g>
<mask id="mask4_63_6" style="mask-type:luminance" maskUnits="userSpaceOnUse" x="338" y="166" width="81" height="88">
<path d="M395.69 250.67C397.64 253.84 343.95 255.2 340.25 252.67C339.76 252.34 339.4 251.95 339.15 251.54C337.47 248.81 340.25 244.75 340.25 244.75C340.25 244.75 339.78 188.92 347.16 167.83C347.16 167.83 356.21 166.7 368.61 166.88C373.4 166.95 378.7 167.22 384.18 167.83C388.14 168.27 393.04 169.09 397.87 169.99C405.94 171.51 413.83 173.29 416.96 174C417.86 174.21 418.37 174.33 418.37 174.33C418.37 174.33 393.74 247.51 395.69 250.67Z" fill="white"/>
</mask>
<g mask="url(#mask4_63_6)">
<path opacity="0.2" d="M395.689 250.67C397.639 253.84 343.949 255.2 340.249 252.67C339.759 252.34 339.399 251.95 339.149 251.54C349.809 253.48 376.119 251.04 383.299 248.15C391.799 244.73 396.749 229.22 394.039 230.8C391.339 232.38 382.309 231.4 389.129 228.03C395.949 224.67 403.529 213.62 403.529 213.62C403.529 213.62 398.729 199.75 400.309 196.93C401.459 194.86 402.939 198.69 403.649 200.9C402.439 195.2 406.759 189.51 406.759 189.51L416.959 174C417.859 174.21 418.369 174.33 418.369 174.33C418.369 174.33 393.739 247.51 395.689 250.67Z" fill="black" fill-opacity="0.7"/>
</g>
<path d="M395.69 250.67C397.64 253.84 343.95 255.2 340.25 252.67C339.76 252.34 339.4 251.95 339.15 251.54C337.47 248.81 340.25 244.75 340.25 244.75C340.25 244.75 339.78 188.92 347.16 167.83C347.16 167.83 356.21 166.7 368.61 166.88C373.4 166.95 378.7 167.22 384.18 167.83C388.14 168.27 393.04 169.09 397.87 169.99C405.94 171.51 413.83 173.29 416.96 174C417.86 174.21 418.37 174.33 418.37 174.33C418.37 174.33 393.74 247.51 395.69 250.67Z" stroke="#263238" stroke-miterlimit="10" stroke-linecap="round" stroke-linejoin="round"/>
<path d="M392.689 168.755C392.689 168.755 372.72 176.759 366.162 168.398C366.162 168.398 369.748 168.755 371.916 165.645C372.758 164.456 373.389 162.754 373.526 160.321C373.627 158.839 373.526 157.092 373.188 155.025C372.42 150.342 392.114 153.369 392.114 153.369C392.114 153.369 387.878 166.395 392.689 168.755Z" fill="white" stroke="#263238" stroke-miterlimit="10" stroke-linecap="round" stroke-linejoin="round"/>
<path d="M380.852 158.465C380.852 158.465 377.413 164.393 371.915 165.646C372.757 164.457 373.388 162.755 373.525 160.322C377.249 159.242 380.852 158.465 380.852 158.465Z" fill="#263238"/>
<path d="M392.109 152.29C397.68 144.035 406.166 111.48 378.776 117.84C365.155 121.003 366.922 138.847 366.922 138.847L362.23 144.656L366.11 147.948L365.946 151.822L367.271 152.291C367.271 152.291 366.106 161.698 367.271 162.291C369.394 163.372 383.324 161.674 383.324 158.287" fill="white"/>
<path d="M392.109 152.29C397.68 144.035 406.166 111.48 378.776 117.84C365.155 121.003 366.922 138.847 366.922 138.847L362.23 144.656L366.11 147.948L365.946 151.822L367.271 152.291C367.271 152.291 366.106 161.698 367.271 162.291C369.394 163.372 383.324 161.674 383.324 158.287" stroke="#263238" stroke-miterlimit="10" stroke-linecap="round" stroke-linejoin="round"/>
<path d="M367.271 152.29C367.271 152.29 371.188 152.798 374.164 152.406C374.164 152.406 372.667 155.465 368.828 154.446" stroke="#263238" stroke-miterlimit="10" stroke-linecap="round" stroke-linejoin="round"/>
<path d="M369.244 131.699C369.244 131.699 373.886 131.235 376.092 134.368" stroke="#263238" stroke-miterlimit="10" stroke-linecap="round" stroke-linejoin="round"/>
<path d="M372.03 138.837C372.03 139.766 371.653 140.52 371.189 140.52C370.724 140.52 370.348 139.767 370.348 138.837C370.348 137.908 370.725 137.154 371.189 137.154C371.654 137.154 372.03 137.908 372.03 138.837Z" fill="#263238"/>
<path d="M400.58 122.803C396.167 118.254 377.29 111.583 371.922 114.33L371.916 114.321C364.041 117.334 366.162 125.928 366.162 125.928L367.271 122.942C367.271 122.942 367.849 125.475 371.916 127.013V125.113C371.916 125.113 375.075 126.651 380.052 126.38L379.191 125.103C381.072 125.537 382.316 126.035 382.316 126.035C379.298 131.635 382.707 135.596 382.707 135.596L382.679 143.178C382.679 143.178 386.653 147.085 387.814 151.031C388.975 154.977 392.11 155.464 392.11 155.464C400.816 150.146 405.222 127.589 400.58 122.803Z" fill="#263238"/>
<path d="M381.778 144.301C381.778 144.301 386.072 138.518 388.277 139.437C390.482 140.355 391.063 145.694 389.902 148.131C388.741 150.568 384.563 155.547 383.635 153.696" fill="white"/>
<path d="M381.778 144.301C381.778 144.301 386.072 138.518 388.277 139.437C390.482 140.355 391.063 145.694 389.902 148.131C388.741 150.568 384.563 155.547 383.635 153.696" stroke="#263238" stroke-miterlimit="10" stroke-linecap="round" stroke-linejoin="round"/>
<path d="M321.846 196.925C321.846 196.925 325.011 206.077 321.846 217.154" stroke="#263238" stroke-miterlimit="10" stroke-linecap="round" stroke-linejoin="round"/>
<path d="M314.461 218.798C314.461 218.798 318.417 212.665 319.208 208.448" stroke="#263238" stroke-miterlimit="10" stroke-linecap="round" stroke-linejoin="round"/>
<path d="M367.271 172.209L369.244 179.329C369.244 179.329 357.45 218.736 356.132 230.077L358.769 234.113L363.78 230.34C363.78 230.34 368.725 191.535 371.915 180.709L377.992 172.486L374.164 172.113L367.271 172.209Z" fill="#263238"/>
<path d="M370.347 165.645L372.668 170.472L392.69 165.645L397.873 169.993L376.092 179.329L372.668 172.487L366.162 177.066C366.162 177.066 361.353 166.357 370.347 165.645Z" fill="#1459BA" stroke="#263238" stroke-miterlimit="10" stroke-linecap="round" stroke-linejoin="round"/>
<path d="M416.725 232.385C416.725 232.385 408.417 239.704 403.077 248.803C397.736 257.902 389.626 267.001 385.473 269.374C385.473 269.374 385.869 277.484 391.011 282.033C391.011 282.033 424.833 252.018 428.989 242.67C433.145 233.323 416.725 232.385 416.725 232.385Z" fill="white" stroke="#263238" stroke-miterlimit="10" stroke-linecap="round" stroke-linejoin="round"/>
<path d="M418.374 174.332C424.704 177.33 433.407 230.839 433.627 238.252C433.697 240.623 428.924 245.754 428.924 245.754C428.924 245.754 429.001 250.354 426.061 250.765C426.061 250.765 417.319 241.769 409.935 238.297C409.935 238.297 408.88 234.964 412.572 234.894L406.842 209.861C400.703 189.264 413.627 178.821 413.627 178.821" fill="#1459BA"/>
<path d="M418.374 174.332C424.704 177.33 433.407 230.839 433.627 238.252C433.697 240.623 428.924 245.754 428.924 245.754C428.924 245.754 429.001 250.354 426.061 250.765C426.061 250.765 417.319 241.769 409.935 238.297C409.935 238.297 408.88 234.964 412.572 234.894L406.842 209.861C400.703 189.264 413.627 178.821 413.627 178.821" stroke="#263238" stroke-miterlimit="10" stroke-linecap="round" stroke-linejoin="round"/>
<path d="M412.571 234.894C412.571 234.894 421.274 235.55 426.022 242.671" stroke="#263238" stroke-miterlimit="10" stroke-linecap="round" stroke-linejoin="round"/>
<path d="M373.145 260.033C378.33 259.824 383.772 259.297 389.131 258.278L388.708 253.474C385.147 254.016 379.637 254.68 372.623 254.997C372.77 256.361 373 258.525 373.145 260.033Z" fill="#757575" stroke="#263238" stroke-miterlimit="10" stroke-linecap="round" stroke-linejoin="round"/>
<path d="M391.092 257.879C392.08 257.667 393.066 257.444 394.043 257.196L393.317 252.652C393.317 252.652 392.375 252.865 390.616 253.166L391.092 257.879Z" fill="#757575" stroke="#263238" stroke-miterlimit="10" stroke-linecap="round" stroke-linejoin="round"/>
<path d="M370.371 255.084C363.655 255.302 355.705 255.182 346.853 254.366L346.277 258.703C351.07 259.36 360.174 260.337 370.608 260.111L370.371 255.084Z" fill="#757575" stroke="#263238" stroke-miterlimit="10" stroke-linecap="round" stroke-linejoin="round"/>
<path d="M345.245 254.211C344.57 254.143 343.895 254.075 343.21 253.999L342.681 258.148C342.681 258.148 343.396 258.279 344.683 258.473L345.245 254.211Z" fill="#757575" stroke="#263238" stroke-miterlimit="10" stroke-linecap="round" stroke-linejoin="round"/>
<path d="M360.944 260.464L352.241 260.158L352.9 254.628L361.603 254.934L360.944 260.464Z" fill="#BFBFBF" stroke="#263238" stroke-miterlimit="10" stroke-linecap="round" stroke-linejoin="round"/>
<path d="M318.418 459.527H337.011L345.714 457.681L349.407 459.527H357.055" stroke="#263238" stroke-miterlimit="10" stroke-linecap="round" stroke-linejoin="round"/>
<path d="M396.483 459.527H417.451" stroke="#263238" stroke-miterlimit="10" stroke-linecap="round" stroke-linejoin="round"/>
<path d="M399.121 450.856C399.121 450.856 408.205 447.172 413.758 449.637" stroke="#263238" stroke-miterlimit="10" stroke-linecap="round" stroke-linejoin="round"/>
<path d="M379.425 192.607L394.044 194.102L390.618 209.44L382.901 210.421L376.384 206.275L377.993 194.102" stroke="#263238" stroke-miterlimit="10" stroke-linecap="round" stroke-linejoin="round"/>
<path d="M415.736 194.102C415.736 194.102 409.47 196.552 408.813 206.077" stroke="#263238" stroke-miterlimit="10" stroke-linecap="round" stroke-linejoin="round"/>
<path d="M337.802 188.67C337.802 188.67 338.512 198.835 341.52 204.335" stroke="#263238" stroke-miterlimit="10" stroke-linecap="round" stroke-linejoin="round"/>
<path d="M343.963 245.597C343.963 245.597 369.481 243.659 376.982 236.736" stroke="#263238" stroke-miterlimit="10" stroke-linecap="round" stroke-linejoin="round"/>
<path d="M401.692 200.089C401.692 200.089 403.293 206.467 406.449 208.448" stroke="#263238" stroke-miterlimit="10" stroke-linecap="round" stroke-linejoin="round"/>
<g opacity="0.2">
<path d="M355.011 267.113C355.011 267.113 354.681 285.68 356.132 288.011C357.583 290.341 358.443 290.777 358.443 290.777" stroke="white" stroke-miterlimit="10" stroke-linecap="round" stroke-linejoin="round"/>
<path d="M358.443 265.992C358.443 265.992 358.505 293.901 361.604 303.198" stroke="white" stroke-miterlimit="10" stroke-linecap="round" stroke-linejoin="round"/>
<path d="M383.297 264.033C383.297 264.033 383.627 278.783 394.045 285.254" stroke="white" stroke-miterlimit="10" stroke-linecap="round" stroke-linejoin="round"/>
<path d="M397.143 280.542C397.143 280.542 397.539 295.88 397.143 299.045C396.747 302.21 399.319 317.118 399.319 323.312C399.319 329.506 401.495 339.199 401.495 341.375" stroke="white" stroke-miterlimit="10" stroke-linecap="round" stroke-linejoin="round"/>
<path d="M362.527 307.966C362.527 307.966 377.666 312.862 380.877 312.282" stroke="white" stroke-miterlimit="10" stroke-linecap="round" stroke-linejoin="round"/>
<path d="M362.527 311.28C360.945 309.923 348.879 315.972 347.296 315.321" stroke="white" stroke-miterlimit="10" stroke-linecap="round" stroke-linejoin="round"/>
<path d="M362.527 315.37C362.131 316.055 350.263 332.549 348.681 330.731" stroke="white" stroke-miterlimit="10" stroke-linecap="round" stroke-linejoin="round"/>
<path d="M364.505 313.225C364.505 313.225 377.073 325.747 380.877 327.131" stroke="white" stroke-miterlimit="10" stroke-linecap="round" stroke-linejoin="round"/>
<path d="M399.121 435.486C399.121 435.486 408.22 427.141 409.209 425.401C410.198 423.66 400.506 421.682 400.506 421.682" stroke="white" stroke-miterlimit="10" stroke-linecap="round" stroke-linejoin="round"/>
<path d="M401.494 440.074C401.494 440.074 408.219 437.693 412.571 439.775" stroke="white" stroke-miterlimit="10" stroke-linecap="round" stroke-linejoin="round"/>
<path d="M345.121 431.246C345.121 431.246 353.824 425.892 353.627 422.699" stroke="white" stroke-miterlimit="10" stroke-linecap="round" stroke-linejoin="round"/>
<path d="M357.055 433.352C357.055 433.352 346.901 438.954 343.934 438.922C340.967 438.891 352.044 443.044 354.813 442.451" stroke="white" stroke-miterlimit="10" stroke-linecap="round" stroke-linejoin="round"/>
</g>
<path d="M272.344 162.154L287.304 159.167" stroke="#263238" stroke-miterlimit="10" stroke-linecap="round" stroke-linejoin="round"/>
<path d="M271.635 158.341L297.679 153.141" stroke="#263238" stroke-miterlimit="10" stroke-linecap="round" stroke-linejoin="round"/>
<path d="M270.926 154.529L296.969 149.329" stroke="#263238" stroke-miterlimit="10" stroke-linecap="round" stroke-linejoin="round"/>
<path d="M270.216 150.716L296.26 145.516" stroke="#263238" stroke-miterlimit="10" stroke-linecap="round" stroke-linejoin="round"/>
<path d="M269.507 146.903L295.551 141.703" stroke="#263238" stroke-miterlimit="10" stroke-linecap="round" stroke-linejoin="round"/>
<path d="M268.797 143.091L294.841 137.891" stroke="#263238" stroke-miterlimit="10" stroke-linecap="round" stroke-linejoin="round"/>
<path d="M268.088 139.278L294.132 134.078" stroke="#263238" stroke-miterlimit="10" stroke-linecap="round" stroke-linejoin="round"/>
<path d="M274.326 134.078L293.422 130.265" stroke="#263238" stroke-miterlimit="10" stroke-linecap="round" stroke-linejoin="round"/>
<path d="M42.1436 461.637H461.637" stroke="#263238" stroke-miterlimit="10" stroke-linecap="round" stroke-linejoin="round"/>
</svg>
