<svg width="24" height="24" viewBox="0 0 24 24" fill="none" xmlns="http://www.w3.org/2000/svg">
<path d="M17.6 6.31993C16.8669 5.58135 15.9943 4.9959 15.033 4.59761C14.0716 4.19932 13.0406 3.99616 12 3.99993C10.6089 4.00129 9.24248 4.36813 8.03771 5.06371C6.83294 5.75929 5.83208 6.7592 5.13534 7.96329C4.4386 9.16739 4.07046 10.5334 4.06776 11.9245C4.06507 13.3157 4.42793 14.6831 5.12 15.8899L4 19.9999L8.2 18.8999C9.35975 19.5451 10.6629 19.889 11.99 19.8999C14.0997 19.9 16.124 19.0667 17.6222 17.5815C19.1205 16.0964 19.9715 14.0795 19.99 11.9699C19.983 10.9172 19.7682 9.87628 19.3581 8.90674C18.948 7.93719 18.3505 7.05813 17.6 6.31993ZM12 18.5299C10.8177 18.5307 9.65701 18.2129 8.64 17.6099L8.4 17.4599L5.91 18.1199L6.57 15.6899L6.41 15.4399C5.55925 14.0666 5.24174 12.4289 5.51762 10.8371C5.7935 9.24539 6.64361 7.81009 7.9069 6.80316C9.1702 5.79622 10.7589 5.28759 12.3721 5.37362C13.9853 5.45964 15.511 6.13435 16.66 7.26993C17.916 8.49812 18.635 10.1734 18.66 11.9299C18.6442 13.6858 17.9355 15.3644 16.6882 16.6005C15.441 17.8365 13.756 18.53 12 18.5299ZM15.61 13.5899C15.41 13.4899 14.44 13.0099 14.26 12.9499C14.08 12.8899 13.94 12.8499 13.81 13.0499C13.6144 13.318 13.404 13.575 13.18 13.8199C13.07 13.9599 12.95 13.9699 12.75 13.8199C11.6097 13.3693 10.6597 12.5393 10.06 11.4699C9.85 11.1199 10.26 11.1399 10.64 10.3899C10.6681 10.3358 10.6827 10.2758 10.6827 10.2149C10.6827 10.154 10.6681 10.094 10.64 10.0399C10.64 9.93993 10.19 8.95993 10.03 8.56993C9.87 8.17993 9.71 8.23993 9.58 8.22993H9.19C9.08895 8.23148 8.9894 8.25459 8.898 8.2977C8.8066 8.34081 8.72546 8.40294 8.66 8.47993C8.43562 8.69811 8.26061 8.96185 8.14676 9.25337C8.03291 9.54489 7.98287 9.85743 8 10.1699C8.0627 10.918 8.34443 11.631 8.81 12.2199C9.6622 13.4957 10.8301 14.5292 12.2 15.2199C12.9185 15.6393 13.7535 15.8147 14.58 15.7199C14.8552 15.6653 15.1159 15.5534 15.345 15.3914C15.5742 15.2295 15.7667 15.0211 15.91 14.7799C16.0428 14.4855 16.0846 14.1582 16.03 13.8399C15.94 13.7399 15.81 13.6899 15.61 13.5899Z" fill="white"/>
</svg>
